<svg width="22" height="22" viewBox="0 0 22 22" fill="none" xmlns="http://www.w3.org/2000/svg">
<g clip-path="url(#clip0_1081_5)">
<path d="M19.9375 4.125C20.1198 4.125 20.2947 4.19743 20.4236 4.32636C20.5526 4.4553 20.625 4.63016 20.625 4.8125V17.1875C20.625 17.3698 20.5526 17.5447 20.4236 17.6736C20.2947 17.8026 20.1198 17.875 19.9375 17.875H2.0625C1.88016 17.875 1.7053 17.8026 1.57636 17.6736C1.44743 17.5447 1.375 17.3698 1.375 17.1875V4.8125C1.375 4.63016 1.44743 4.4553 1.57636 4.32636C1.7053 4.19743 1.88016 4.125 2.0625 4.125H19.9375ZM2.0625 2.75C1.51549 2.75 0.990886 2.9673 0.604092 3.35409C0.217298 3.74089 0 4.26549 0 4.8125L0 17.1875C0 17.7345 0.217298 18.2591 0.604092 18.6459C0.990886 19.0327 1.51549 19.25 2.0625 19.25H19.9375C20.4845 19.25 21.0091 19.0327 21.3959 18.6459C21.7827 18.2591 22 17.7345 22 17.1875V4.8125C22 4.26549 21.7827 3.74089 21.3959 3.35409C21.0091 2.9673 20.4845 2.75 19.9375 2.75H2.0625Z" fill="white"/>
<path d="M4.125 7.5625C4.125 7.38016 4.19743 7.2053 4.32636 7.07636C4.4553 6.94743 4.63016 6.875 4.8125 6.875H17.1875C17.3698 6.875 17.5447 6.94743 17.6736 7.07636C17.8026 7.2053 17.875 7.38016 17.875 7.5625C17.875 7.74484 17.8026 7.9197 17.6736 8.04864C17.5447 8.17757 17.3698 8.25 17.1875 8.25H4.8125C4.63016 8.25 4.4553 8.17757 4.32636 8.04864C4.19743 7.9197 4.125 7.74484 4.125 7.5625ZM4.125 11C4.125 10.8177 4.19743 10.6428 4.32636 10.5139C4.4553 10.3849 4.63016 10.3125 4.8125 10.3125H17.1875C17.3698 10.3125 17.5447 10.3849 17.6736 10.5139C17.8026 10.6428 17.875 10.8177 17.875 11C17.875 11.1823 17.8026 11.3572 17.6736 11.4861C17.5447 11.6151 17.3698 11.6875 17.1875 11.6875H4.8125C4.63016 11.6875 4.4553 11.6151 4.32636 11.4861C4.19743 11.3572 4.125 11.1823 4.125 11ZM4.125 14.4375C4.125 14.2552 4.19743 14.0803 4.32636 13.9514C4.4553 13.8224 4.63016 13.75 4.8125 13.75H13.0625C13.2448 13.75 13.4197 13.8224 13.5486 13.9514C13.6776 14.0803 13.75 14.2552 13.75 14.4375C13.75 14.6198 13.6776 14.7947 13.5486 14.9236C13.4197 15.0526 13.2448 15.125 13.0625 15.125H4.8125C4.63016 15.125 4.4553 15.0526 4.32636 14.9236C4.19743 14.7947 4.125 14.6198 4.125 14.4375Z" fill="white"/>
</g>
<defs>
<clipPath id="clip0_1081_5">
<rect width="22" height="22" fill="white"/>
</clipPath>
</defs>
</svg>
