<svg width="16" height="26" viewBox="0 0 16 26" fill="none" xmlns="http://www.w3.org/2000/svg">
<path d="M7.8125 2.11704C8.6413 2.11704 9.43616 2.44628 10.0222 3.03233C10.6083 3.61838 10.9375 4.41323 10.9375 5.24204V11.492H4.6875V5.24204C4.6875 4.41323 5.01674 3.61838 5.60279 3.03233C6.18884 2.44628 6.9837 2.11704 7.8125 2.11704ZM12.5 11.492V5.24204C12.5 3.99883 12.0061 2.80655 11.1271 1.92747C10.248 1.0484 9.0557 0.554535 7.8125 0.554535C6.5693 0.554535 5.37701 1.0484 4.49794 1.92747C3.61886 2.80655 3.125 3.99883 3.125 5.24204V11.492C2.2962 11.492 1.50134 11.8213 0.915291 12.4073C0.32924 12.9934 0 13.7882 0 14.617V22.4295C0 23.2583 0.32924 24.0532 0.915291 24.6392C1.50134 25.2253 2.2962 25.5545 3.125 25.5545H12.5C13.3288 25.5545 14.1237 25.2253 14.7097 24.6392C15.2958 24.0532 15.625 23.2583 15.625 22.4295V14.617C15.625 13.7882 15.2958 12.9934 14.7097 12.4073C14.1237 11.8213 13.3288 11.492 12.5 11.492ZM3.125 13.0545H12.5C12.9144 13.0545 13.3118 13.2192 13.6049 13.5122C13.8979 13.8052 14.0625 14.2026 14.0625 14.617V22.4295C14.0625 22.8439 13.8979 23.2414 13.6049 23.5344C13.3118 23.8274 12.9144 23.992 12.5 23.992H3.125C2.7106 23.992 2.31317 23.8274 2.02015 23.5344C1.72712 23.2414 1.5625 22.8439 1.5625 22.4295V14.617C1.5625 14.2026 1.72712 13.8052 2.02015 13.5122C2.31317 13.2192 2.7106 13.0545 3.125 13.0545Z" fill="black"/>
</svg>
